<svg xmlns="http://www.w3.org/2000/svg"
    xmlns:xlink="http://www.w3.org/1999/xlink"
    xmlns:xodm="http://www.corel.com/coreldraw/odm/2003" xml:space="preserve" width="4.01896in" height="1.53013in" version="1.1" style="shape-rendering:geometricPrecision; text-rendering:geometricPrecision; image-rendering:optimizeQuality; fill-rule:evenodd; clip-rule:evenodd" viewBox="0 0 1500 1500">
    <defs>
        <style type="text/css">
            <![CDATA[
    .fil1 {fill:#161616}
    .fil4 {fill:#161616}
    .fil2 {fill:#425152;fill-rule:nonzero}
    .fil3 {fill:url(#id0)}
    .fil0 {fill:url(#id1);fill-rule:nonzero}
   ]]>
        </style>
        <linearGradient id="id0" gradientUnits="userSpaceOnUse" x1="377.75" y1="318.4" x2="841.13" y2="781.78">
            <stop offset="0" style="stop-opacity:1; stop-color:#00FA73"/>
            <stop offset="1" style="stop-opacity:1; stop-color:#A5C8CA"/>
        </linearGradient>
        <linearGradient id="id1" gradientUnits="userSpaceOnUse" xlink:href="#id0" x1="1853.78" y1="580.4" x2="3179.9" y2="580.42">
        </linearGradient>
    </defs>
    <g id="Layer_x0020_1">
        <metadata id="CorelCorpID_0Corel-Layer"/>
        <g id="_1772754155984">
            <!-- <g>
    <path class="fil0" d="M2300.03 949.95l-90.54 0c-6.31,0 -11.26,-1.57 -14.98,-4.73 -3.72,-3.15 -6.76,-6.76 -9.01,-10.81l-113.18 -187.5c-1.8,5.63 -3.94,10.47 -6.42,14.53l-108.45 172.98c-2.7,3.83 -5.74,7.32 -9.23,10.58 -3.49,3.27 -8.11,4.96 -13.74,4.96l-84.8 0 162.17 -251.35 -155.74 -237.17 90.54 0c6.31,0 10.93,0.79 13.74,2.48 2.81,1.69 5.41,4.5 7.88,8.33l111.15 179.06c2.25,-5.63 4.95,-11.26 8.11,-16.89l102.03 -160.48c2.48,-4.28 5.18,-7.43 8.11,-9.46 2.93,-2.03 6.64,-3.04 11.15,-3.04l86.82 0 -157.09 233.45 161.49 255.07zm489.87 -244.26c0,35.81 -5.97,68.69 -17.91,98.65 -11.94,29.96 -28.72,55.74 -50.34,77.37 -21.62,21.62 -47.63,38.4 -78.04,50.34 -30.41,11.94 -64.19,17.91 -101.35,17.91l-186.15 0 0 -488.52 186.15 0c37.16,0 70.95,5.97 101.35,18.02 30.41,12.05 56.42,28.83 78.04,50.34 21.62,21.51 38.4,47.3 50.34,77.26 11.94,29.95 17.91,62.84 17.91,98.65zm-93.24 0c0,-26.8 -3.49,-50.9 -10.59,-72.19 -7.09,-21.28 -17.34,-39.3 -30.74,-54.06 -13.4,-14.75 -29.62,-26.02 -48.65,-33.9 -19.03,-7.88 -40.54,-11.82 -64.42,-11.82l-94.93 0 0 343.92 94.93 0c23.87,0 45.39,-3.94 64.42,-11.82 19.03,-7.88 35.25,-19.26 48.65,-34.01 13.4,-14.75 23.65,-32.77 30.74,-54.06 7.09,-21.28 10.59,-45.27 10.59,-72.07zm508.79 129.06c4.96,0 9.35,1.91 13.18,5.74l35.81 38.85c-19.82,24.55 -44.15,43.36 -73.09,56.42 -28.94,13.06 -63.74,19.59 -104.28,19.59 -36.26,0 -68.81,-6.19 -97.75,-18.58 -28.94,-12.39 -53.72,-29.62 -74.21,-51.69 -20.5,-22.07 -36.15,-48.43 -47.07,-79.06 -10.93,-30.63 -16.44,-64.08 -16.44,-100.34 0,-36.71 5.85,-70.39 17.57,-100.9 11.71,-30.52 28.26,-56.76 49.55,-78.83 21.28,-22.07 46.62,-39.3 76.13,-51.58 29.5,-12.28 62.16,-18.35 97.97,-18.35 35.59,0 67.23,5.85 94.82,17.57 27.59,11.71 51.01,27.03 70.38,45.95l-30.41 42.23c-1.8,2.7 -4.05,5.07 -6.87,7.09 -2.81,2.03 -6.76,3.04 -11.71,3.04 -3.38,0 -6.87,-1.01 -10.48,-2.93 -3.6,-1.92 -7.54,-4.28 -11.82,-7.09 -4.28,-2.81 -9.24,-5.86 -14.87,-9.24 -5.63,-3.38 -12.16,-6.53 -19.59,-9.35 -7.43,-2.81 -15.99,-5.18 -25.79,-7.09 -9.8,-1.91 -21.17,-2.81 -34.01,-2.81 -21.85,0 -41.78,3.83 -59.91,11.6 -18.13,7.77 -33.78,19.03 -46.85,33.78 -13.06,14.75 -23.2,32.77 -30.41,54.06 -7.21,21.28 -10.81,45.61 -10.81,72.86 0,27.48 3.94,51.91 11.71,73.31 7.77,21.4 18.24,39.42 31.53,54.06 13.29,14.64 28.94,25.79 46.96,33.56 18.02,7.77 37.39,11.71 58.11,11.71 12.39,0 23.65,-0.68 33.67,-2.03 10.02,-1.35 19.26,-3.49 27.7,-6.42 8.45,-2.93 16.44,-6.76 23.99,-11.37 7.55,-4.62 14.98,-10.25 22.41,-17.01 2.25,-2.03 4.62,-3.72 7.09,-4.95 2.48,-1.24 5.07,-1.8 7.77,-1.8zm511.15 -69.26l-59.46 -162.5c-2.93,-7.21 -5.97,-15.76 -9.12,-25.68 -3.15,-9.91 -6.31,-20.61 -9.46,-32.09 -2.93,11.49 -5.97,22.19 -9.12,32.21 -3.15,10.02 -6.2,18.81 -9.12,26.24l-59.12 161.83 155.41 0zm160.48 184.46l-70.27 0c-7.88,0 -14.3,-2.03 -19.26,-5.97 -4.96,-3.94 -8.67,-8.78 -11.15,-14.64l-36.49 -99.66 -202.37 0 -36.49 99.66c-1.8,5.18 -5.29,9.91 -10.47,14.19 -5.18,4.28 -11.6,6.42 -19.26,6.42l-70.95 0 192.23 -488.52 92.57 0 191.89 488.52zm141.89 0l-91.22 0 0 -488.52 91.22 0 0 488.52z"/>
   </g> -->
            <g>
                <path class="fil1" d="M377.88 15.65l774.36 0c200.11,0 363.83,163.72 363.83,363.83l0 774.36c0,200.11 -163.72,363.83 -363.83,363.83l-774.36 0c-200.11,0 -363.83,-163.72 -363.83,-363.83l0 -774.36c0,-200.11 163.72,-363.83 363.83,-363.83z"/>
                <path class="fil2" d="M377.88 1.59l774.36 0c103.93,0 198.41,42.51 266.89,110.99 68.48,68.48 110.99,162.96 110.99,266.89l0 774.36c0,103.93 -42.51,198.41 -110.99,266.89 -68.48,68.48 -162.96,110.99 -266.89,110.99l-774.36 0c-103.93,0 -198.41,-42.51 -266.89,-110.99 -68.48,-68.48 -110.99,-162.97 -110.99,-266.89l0 -774.36c0,-103.93 42.51,-198.41 110.99,-266.89 68.48,-68.48 162.96,-110.99 266.89,-110.99zm774.36 28.11l-774.36 0c-96.17,0 -183.62,39.35 -247.02,102.76 -63.4,63.4 -102.75,150.84 -102.75,247.02l0 774.36c0,96.17 39.35,183.62 102.75,247.02 63.4,63.4 150.85,102.75 247.02,102.75l774.36 0c96.18,0 183.62,-39.35 247.02,-102.75 63.4,-63.4 102.76,-150.85 102.76,-247.02l0 -774.36c0,-96.18 -39.35,-183.62 -102.76,-247.02 -63.4,-63.4 -150.84,-102.76 -247.02,-102.76z"/>
                <g>
                    <path class="fil3" d="M1170.8 316.48l-600.26 900.36 -211.21 0 300.13 -450.18 105.94 -158.92 -194.87 -291.26 -211.21 0 300.13 450.18 300.13 -450.18 211.21 0zm-390.21 631.87l179 268.5 211.21 0 -284.61 -426.89 -105.6 158.4z"/>
                    <g>
                        <path class="fil4" d="M814.04 773.65c-194.57,25.89 -230.62,67.59 -245.63,246.82 -1.74,7.71 -14.05,7.71 -15.79,0 -17.61,-164.09 -50.64,-213.76 -193.3,-239.07l0 -28.54c138.66,-22.11 174.98,-69.08 193.3,-239.98 1.74,-7.72 14.05,-7.72 15.79,0 14.7,180.05 54.3,220.1 245.63,246.82 8.06,1.85 8.06,12.1 0,13.96z"/>
                    </g>
                </g>
            </g>
        </g>
    </g>
</svg>